<?xml version="1.0" encoding="UTF-8"?>
<!DOCTYPE svg PUBLIC "-//W3C//DTD SVG 1.1//EN" "http://www.w3.org/Graphics/SVG/1.1/DTD/svg11.dtd">
<!-- Creator: CorelDRAW -->
<svg xmlns="http://www.w3.org/2000/svg" xml:space="preserve" width="512px" height="512px" version="1.1" style="shape-rendering:geometricPrecision; text-rendering:geometricPrecision; image-rendering:optimizeQuality; fill-rule:evenodd; clip-rule:evenodd"
viewBox="0 0 512 512"
 xmlns:xlink="http://www.w3.org/1999/xlink"
 xmlns:xodm="http://www.corel.com/coreldraw/odm/2003">
 <defs>
  <style type="text/css">
   <![CDATA[
    .fil0 {fill:url(#id0)}
   ]]>
  </style>
  <linearGradient id="id0" gradientUnits="userSpaceOnUse" x1="256" y1="0" x2="256" y2="512">
   <stop offset="0" style="stop-opacity:1; stop-color:#5CC6D0"/>
   <stop offset="0.490196" style="stop-opacity:1; stop-color:#A53692"/>
   <stop offset="1" style="stop-opacity:1; stop-color:#F06277"/>
  </linearGradient>
 </defs>
 <g id="Layer_x0020_1">
  <metadata id="CorelCorpID_0Corel-Layer"/>
  <path class="fil0" d="M355 414c-0.8,0 -1.5,-0.1 -2.3,-0.4l-40 -14c-3.6,-1.3 -5.6,-5.3 -4.3,-8.9l7 -20c11.7,-34 11,-60.8 -2.3,-82 0,0 -0.1,-0.1 -0.1,-0.1 -17.6,-29.3 -54.3,-44.2 -86.3,-51.8l32.4 56.7c0.9,1.6 1.2,3.5 0.7,5.3 -0.5,1.8 -1.7,3.3 -3.3,4.2l-37 21c-3.3,1.9 -7.6,0.7 -9.5,-2.6l-77 -134c-1.9,-3.3 -0.8,-7.6 2.6,-9.5l136 -79c3.3,-1.9 7.6,-0.8 9.5,2.5l22 37c1,1.6 1.2,3.5 0.8,5.4 -0.5,1.8 -1.7,3.4 -3.3,4.3l-59 33.8c57,13.7 99.9,41.7 122,80 10.1,17.5 15.7,36.9 16.8,57.7 1.1,21.8 -2.8,45.3 -11.7,69.7l-7 20c-1.1,2.9 -3.8,4.7 -6.7,4.7zm-99 98c-68.6,0 -133,-26.6 -181.2,-74.8 -48.2,-48.2 -74.8,-112.6 -74.8,-181.2 0,-68.2 26.6,-132.5 74.8,-180.8 48.3,-48.5 112.7,-75.2 181.2,-75.2 68.5,0 132.9,26.7 181.2,75.2 48.2,48.3 74.8,112.6 74.8,180.8 0,68.6 -26.6,133 -74.8,181.2 -48.2,48.2 -112.6,74.8 -181.2,74.8zm0 -498c-133.4,0 -242,108.6 -242,242 0,133.4 108.6,242 242,242 133.4,0 242,-108.6 242,-242 0,-133.4 -108.6,-242 -242,-242zm0 468c-60.4,0 -117.2,-23.5 -159.8,-66.2 -42.6,-42.7 -66.2,-99.4 -66.2,-159.8 0,-60.4 23.5,-117.2 66.2,-159.8 42.7,-42.6 99.4,-66.2 159.8,-66.2 60.4,0 117.2,23.5 159.8,66.2 42.6,42.7 66.2,99.4 66.2,159.8 0,60.4 -23.5,117.2 -66.2,159.8 -42.7,42.6 -99.4,66.2 -159.8,66.2zm0 -438c-116.9,0 -212,95.1 -212,212 0,116.9 95.1,212 212,212 116.9,0 212,-95.1 212,-212 0,-116.9 -95.1,-212 -212,-212zm67.9 344.7l26.8 9.4 4.7 -13.4c0,0 0,0 0,-0.1 16.1,-44.3 14.7,-83.2 -4,-115.7 -22.3,-38.7 -68.7,-66 -130.6,-77 -2.9,-0.5 -5.2,-2.8 -5.7,-5.7 -0.5,-2.9 0.9,-5.8 3.4,-7.3l68.8 -39.5 -14.8 -24.9 -124 72 70.1 121.9 24.8 -14.1 -36.5 -63.9c-1.2,-2.2 -1.2,-4.8 0,-7 1.3,-2.2 3.6,-3.5 6.1,-3.5l1 0c0.4,0 0.8,0 1.3,0.1 37.4,6.9 86.8,23.1 109.7,61.2 15.7,24.9 16.9,55.7 3.7,93.9l-4.8 13.6z"/>
 </g>
</svg>
