<?xml version="1.0" encoding="UTF-8"?>
<!DOCTYPE svg PUBLIC "-//W3C//DTD SVG 1.1//EN" "http://www.w3.org/Graphics/SVG/1.1/DTD/svg11.dtd">
<!-- Creator: CorelDRAW -->
<svg xmlns="http://www.w3.org/2000/svg" xml:space="preserve" width="512px" height="512px" version="1.1" style="shape-rendering:geometricPrecision; text-rendering:geometricPrecision; image-rendering:optimizeQuality; fill-rule:evenodd; clip-rule:evenodd"
viewBox="0 0 512 512"
 xmlns:xlink="http://www.w3.org/1999/xlink"
 xmlns:xodm="http://www.corel.com/coreldraw/odm/2003">
 <defs>
  <style type="text/css">
   <![CDATA[
    .fil0 {fill:url(#id0)}
   ]]>
  </style>
  <linearGradient id="id0" gradientUnits="userSpaceOnUse" x1="256" y1="0" x2="256" y2="512">
   <stop offset="0" style="stop-opacity:1; stop-color:#5CC6D0"/>
   <stop offset="0.490196" style="stop-opacity:1; stop-color:#A53692"/>
   <stop offset="1" style="stop-opacity:1; stop-color:#F06277"/>
  </linearGradient>
 </defs>
 <g id="Layer_x0020_1">
  <metadata id="CorelCorpID_0Corel-Layer"/>
  <path class="fil0" d="M368.5 391.5c-5.9,0 -11.8,-2.1 -16.6,-6.2 -0.1,-0.1 -0.3,-0.2 -0.4,-0.4l-48 -48c-0.1,-0.1 -0.2,-0.3 -0.4,-0.4 -6.76,-7.91 -7.95,-18.74 -3.57,-27.67l-21.03 -21.04c-16.97,15.13 -38.57,23.43 -61.5,23.61 -0.2,-0.2 -0.4,-0.1 -0.6,-0.1 -25.5,0 -49.5,-10 -67.8,-28.3 -36.7,-36.7 -36.7,-97.1 -0.1,-134.8 0,0 0.1,-0.1 0.1,-0.1 37.7,-36.6 98.2,-36.6 134.8,0.1 18.4,18.4 28.5,42.8 28.3,68.5 -0.18,22.78 -8.37,44.26 -23.32,61.18l21.08 21.08c8.91,-4.29 19.67,-3.08 27.54,3.64 0.1,0.1 0.3,0.2 0.4,0.4l48 48c0.1,0.1 0.2,0.3 0.4,0.4 8.2,9.6 8.2,23.5 0,33.1 -0.2,0.3 -0.5,0.5 -0.8,0.8 -4.7,4.1 -10.6,6.2 -16.5,6.2zm3 120.5l-231 0c-31.4,0 -57,-25.6 -57,-57l0 -398c0,-30.9 26.1,-57 57,-57l231 0c31.4,0 57,25.6 57,57l0 398c0,32 -25,57 -57,57zm-231 -498c-23.3,0 -43,19.7 -43,43l0 398c0,23.7 19.3,43 43,43l231 0c24.1,0 43,-18.9 43,-43l0 -398c0,-23.7 -19.3,-43 -43,-43l-231 0zm132.42 259.79c0.2,-0.28 0.43,-0.54 0.68,-0.79 0.25,-0.25 0.51,-0.47 0.78,-0.67 14.91,-14.92 23.22,-34.6 23.32,-55.73 0.2,-22 -8.4,-42.7 -24.2,-58.5 -31.2,-31.4 -82.8,-31.4 -115,-0.1 -31.2,32.2 -31.3,83.9 0,115.1 15.6,15.6 36.2,24.2 57.9,24.2 0.2,0 0.4,0 0.6,0 21.22,-0.2 41.08,-8.48 55.92,-23.51zm-56.52 3.01c-15.6,0 -31.3,-5.9 -43.7,-17.8 0,0 -0.1,-0.1 -0.1,-0.1 -11.5,-11.5 -17.8,-26.7 -17.8,-42.9 0,-16.2 6.3,-31.5 17.8,-42.9 12.2,-12.2 27.9,-18.8 44.5,-18.5 16.1,0.2 31.1,6.8 42.4,18.6 11.4,11.5 17.7,26.7 17.7,42.9 0,16.2 -6.3,31.5 -17.8,42.9 -11.9,11.9 -27.4,17.8 -43,17.8zm-34 -27.8c19.3,18.4 48.8,18.4 67.2,0.1 8.8,-8.8 13.7,-20.6 13.7,-33.1 0,-12.5 -4.9,-24.2 -13.7,-33.1 0,0 -0.1,-0.1 -0.1,-0.1 -8.7,-9.1 -20.2,-14.2 -32.5,-14.3 -12.8,-0.1 -25,5 -34.5,14.4 -8.8,8.8 -13.7,20.6 -13.7,33.1 0,12.5 4.8,24.2 13.6,33zm130.1 -199l-112 0c-3.9,0 -7,-3.1 -7,-7 0,-3.9 3.1,-7 7,-7l112 0c3.9,0 7,3.1 7,7 0,3.9 -3.1,7 -7,7zm-21 426l-70 0c-3.9,0 -7,-3.1 -7,-7 0,-3.9 3.1,-7 7,-7l70 0c3.9,0 7,3.1 7,7 0,3.9 -3.1,7 -7,7zm22.25 -163.37l-0.25 0.27c-0.11,0.11 -0.23,0.22 -0.34,0.32 -3.15,4.27 -2.97,9.88 0.44,13.98l47.6 47.6c4.2,3.5 10,3.6 14.3,0.2 3.4,-4.3 3.3,-10.1 -0.2,-14.3l-47.6 -47.6c-4.09,-3.41 -9.69,-3.59 -13.95,-0.47z"/>
 </g>
</svg>
