<?xml version="1.0" encoding="UTF-8"?>
<!DOCTYPE svg PUBLIC "-//W3C//DTD SVG 1.1//EN" "http://www.w3.org/Graphics/SVG/1.1/DTD/svg11.dtd">
<!-- Creator: CorelDRAW -->
<svg xmlns="http://www.w3.org/2000/svg" xml:space="preserve" width="512px" height="512px" version="1.1" style="shape-rendering:geometricPrecision; text-rendering:geometricPrecision; image-rendering:optimizeQuality; fill-rule:evenodd; clip-rule:evenodd"
viewBox="0 0 512 512"
 xmlns:xlink="http://www.w3.org/1999/xlink"
 xmlns:xodm="http://www.corel.com/coreldraw/odm/2003">
 <defs>
  <style type="text/css">
   <![CDATA[
    .fil0 {fill:url(#id0)}
   ]]>
  </style>
  <linearGradient id="id0" gradientUnits="userSpaceOnUse" x1="256" y1="0" x2="256" y2="512">
   <stop offset="0" style="stop-opacity:1; stop-color:#5CC6D0"/>
   <stop offset="0.490196" style="stop-opacity:1; stop-color:#A53692"/>
   <stop offset="1" style="stop-opacity:1; stop-color:#F06277"/>
  </linearGradient>
 </defs>
 <g id="Layer_x0020_1">
  <metadata id="CorelCorpID_0Corel-Layer"/>
  <path class="fil0" d="M394.12 54.03l-5 0 0 67.01 81.88 76.04c2.1,2 2.81,5 1.8,7.7 -1.1,2.61 -3.7,4.41 -6.6,4.41l-29.03 0 0 258.26 17.92 0c3.9,0 7,3.11 7,7.01l0 30.53c0,3.91 -3.2,7.01 -7,7.01l-397.31 0c-3.91,0 -7.01,-3.1 -7.01,-7.01l0 -30.53c0,-3.9 3.1,-7.01 7.01,-7.01l17.01 0 0 -258.26 -29.02 0c-2.91,0 -5.51,-1.8 -6.51,-4.41 -1.1,-2.7 -0.4,-5.7 1.8,-7.7l210.22 -195.2c2.7,-2.51 6.8,-2.51 9.51,0l77.28 71.76 0 -19.61 -5.01 0c-3.9,0 -7.01,-3.11 -7.01,-7.01l0 -25.03c0,-6.8 5.21,-12.01 12.02,-12.01l50.05 0c7.21,0 13.01,5.41 13.01,12.01l0 25.03c0,3.9 -3.1,7.01 -7.01,7.01zm-19.02 54l0 -54 -23.02 0 0 32.62 23.02 21.38zm-33.32 -11.76c-1.09,-0.58 -2,-1.43 -2.65,-2.46l-83.15 -77.22 -192.4 178.58 18.22 0 348.36 0 18.12 0 -106.5 -98.9zm81.37 371.18l0 -258.26 -334.34 0 0 258.26 106.11 0 0 -109.11c0,-3.9 3.1,-7 7.01,-7l108.11 0c3.9,0 7.01,3.1 7.01,7l0 109.11 106.1 0zm-113.11 15.02l-108.11 0c-1.34,0 -2.59,-0.36 -3.64,-1l-116.49 0 -17.02 0 0 16.52 383.3 0 0 -16.52 -17.92 0 -116.48 0c-1.06,0.64 -2.3,1 -3.64,1zm-7.01 -15.02l0 -102.1 -94.1 0 0 102.1 94.1 0zm-11.01 -44.04l-19.02 0c-3.91,0 -7.01,-3.1 -7.01,-7.01 0,-3.9 3.1,-7.01 7.01,-7.01l19.02 0c3.9,0 7.01,3.11 7.01,7.01 0,3.91 -3.11,7.01 -7.01,7.01zm83.19 -106.91l-70.18 0c-3.9,0 -7.01,-3.1 -7.01,-7.01l0 -74.28c0,-3.9 3.11,-7 7.01,-7l70.18 0c3.9,0 7,3.1 7,7l0 74.28c0,3.81 -3.2,7.01 -7,7.01zm-63.17 -14.02l56.16 0 0 -60.26 -56.16 0 0 60.26zm-106.01 14.02l-70.17 0c-3.91,0 -7.01,-3.1 -7.01,-7.01l0 -74.28c0,-3.9 3.1,-7 7.01,-7l70.17 0c3.9,0 7.01,3.1 7.01,7l0 74.28c0,3.81 -3.21,7.01 -7.01,7.01zm-63.16 -14.02l56.15 0 0 -60.26 -56.15 0 0 60.26zm197.2 -262.47l5 0 37.04 0 5.01 0 0 -16.01 -47.05 0 0 16.01z"/>
 </g>
</svg>
