<?xml version="1.0" encoding="UTF-8"?>
<!DOCTYPE svg PUBLIC "-//W3C//DTD SVG 1.1//EN" "http://www.w3.org/Graphics/SVG/1.1/DTD/svg11.dtd">
<!-- Creator: CorelDRAW -->
<svg xmlns="http://www.w3.org/2000/svg" xml:space="preserve" width="512px" height="512px" version="1.1" style="shape-rendering:geometricPrecision; text-rendering:geometricPrecision; image-rendering:optimizeQuality; fill-rule:evenodd; clip-rule:evenodd"
viewBox="0 0 512 512"
 xmlns:xlink="http://www.w3.org/1999/xlink"
 xmlns:xodm="http://www.corel.com/coreldraw/odm/2003">
 <defs>
  <style type="text/css">
   <![CDATA[
    .fil0 {fill:url(#id0)}
   ]]>
  </style>
  <linearGradient id="id0" gradientUnits="userSpaceOnUse" x1="256" y1="44.36" x2="256" y2="467.64">
   <stop offset="0" style="stop-opacity:1; stop-color:#5CC6D0"/>
   <stop offset="0.490196" style="stop-opacity:1; stop-color:#A53692"/>
   <stop offset="1" style="stop-opacity:1; stop-color:#F06277"/>
  </linearGradient>
 </defs>
 <g id="Layer_x0020_1">
  <metadata id="CorelCorpID_0Corel-Layer"/>
  <path class="fil0" d="M394 397.64c-3,0 -5.7,-1.9 -6.7,-4.9l-14 -44c-0.6,-1.8 -0.4,-3.7 0.5,-5.4 0.9,-1.7 2.4,-2.9 4.2,-3.4l40 -12c3.7,-1.1 7.5,0.9 8.7,4.6l14 44c0.6,1.8 0.4,3.7 -0.5,5.4 -0.9,1.7 -2.4,2.9 -4.2,3.4l-40 12c-0.7,0.2 -1.3,0.3 -2,0.3zm111 70l-498 0c-3.9,0 -7,-3.1 -7,-7l0 -30c0,-3.9 3.1,-7 7,-7l31.04 0c-0.03,-0.34 -0.04,-0.67 -0.04,-1l0 -357c0,-7.9 7.1,-15 15,-15l77 0c8.4,0 15,6.6 15,15l0 357c0,0.33 -0.01,0.67 -0.03,1l28.06 0c-0.02,-0.33 -0.03,-0.67 -0.03,-1l0 -357c0,-8.1 6.4,-15 14,-15l78 0c7.6,0 14,6.9 14,15l0 0.97 70.8 -21.67c3.4,-1.1 7.5,-0.6 11,1.3 3.5,1.9 5.9,4.9 6.8,8.4l105 340.9c0,0.1 0.1,0.2 0.1,0.4 0.9,3.7 0.5,7.4 -1.3,10.6 -1.8,3.4 -4.9,5.8 -8.6,6.8l-33.16 10.3 75.36 0c3.9,0 7,3.1 7,7l0 30c0,3.9 -3.1,7 -7,7zm-226.03 -44l91.36 0 -91.33 -293.64 0 292.64c0,0.33 -0.01,0.67 -0.03,1zm-264.97 30l484 0 0 -16 -232.96 0 -0.04 0 -78 0 -0.03 0 -56.95 0 -0.02 0 -77 0 -0.01 0 -38.99 0 0 16zm251.1 -368.4c-0.66,-2.59 -0.62,-5.15 0,-7.49l0 -12.11c0,-0.4 -0.2,-0.8 -0.4,-1l-77.3 0c-0.2,0.2 -0.4,0.6 -0.4,1l0 357c0,0.4 0.2,0.8 0.4,1l77.3 0c0.2,-0.2 0.4,-0.6 0.4,-1l0 -337.39 0 -0.01zm13.9 -2.76l105.7 340.06c0,0.1 0.1,0.3 0.1,0.4 0,0 0,0 0,0.1 0,0 0.1,0 0.1,0l74 -23c0.1,0 0.2,-0.1 0.3,-0.1 0,-0.1 0,-0.2 0,-0.4l-104.9 -340.8c0,0 0,-0.1 0,-0.1 -0.1,-0.1 -0.3,-0.2 -0.5,-0.2l-74.8 22.9 0 0 0 1.14zm-14 -17.84l0 0 0 0zm-211.9 359l0 0 0 0 76.9 0 0.04 0c0.86,-0.02 0.96,-0.61 0.96,-1l0 -357c0,-0.4 -0.1,-1 -1,-1l-76.9 0c-0.4,0.1 -1,0.7 -1.1,1.1l0 356.8c0.1,0.4 0.7,1 1.1,1.1zm-1.1 -1.1l0 0zm0 -356.8l0 0 0 0zm1.1 -1.1c0,0 0,0 0,0m58.9 36l-40 0c-3.9,0 -7,-3.1 -7,-7 0,-3.9 3.1,-7 7,-7l40 0c3.9,0 7,3.1 7,7 0,3.9 -3.1,7 -7,7zm0 28l-40 0c-3.9,0 -7,-3.1 -7,-7 0,-3.9 3.1,-7 7,-7l40 0c3.9,0 7,3.1 7,7 0,3.9 -3.1,7 -7,7zm0 29l-40 0c-3.9,0 -7,-3.1 -7,-7 0,-3.9 3.1,-7 7,-7l40 0c3.9,0 7,3.1 7,7 0,3.9 -3.1,7 -7,7zm0 28l-40 0c-3.9,0 -7,-3.1 -7,-7 0,-3.9 3.1,-7 7,-7l40 0c3.9,0 7,3.1 7,7 0,3.9 -3.1,7 -7,7zm0.6 215.9l-41.6 0c-3.9,0 -7,-3.1 -7,-7l0 -45.9c0,-3.9 3.1,-7 7,-7l41.6 0c3.9,0 7,3.1 7,7l0 45.9c0,3.9 -3.1,7 -7,7zm-34.6 -14l27.6 0 0 -31.9 -27.6 0 0 31.9zm168 -286.9l-40 0c-3.9,0 -7,-3.1 -7,-7 0,-3.9 3.1,-7 7,-7l40 0c3.9,0 7,3.1 7,7 0,3.9 -3.1,7 -7,7zm0 28l-40 0c-3.9,0 -7,-3.1 -7,-7 0,-3.9 3.1,-7 7,-7l40 0c3.9,0 7,3.1 7,7 0,3.9 -3.1,7 -7,7zm0 29l-40 0c-3.9,0 -7,-3.1 -7,-7 0,-3.9 3.1,-7 7,-7l40 0c3.9,0 7,3.1 7,7 0,3.9 -3.1,7 -7,7zm0 28l-40 0c-3.9,0 -7,-3.1 -7,-7 0,-3.9 3.1,-7 7,-7l40 0c3.9,0 7,3.1 7,7 0,3.9 -3.1,7 -7,7zm0.6 215.9l-41.6 0c-3.9,0 -7,-3.1 -7,-7l0 -45.9c0,-3.9 3.1,-7 7,-7l41.6 0c3.9,0 7,3.1 7,7l0 45.9c0,3.9 -3.1,7 -7,7zm-34.6 -14l27.6 0 0 -31.9 -27.6 0 0 31.9zm94 -277.9c-3,0 -5.7,-1.9 -6.7,-4.9 -1.2,-3.7 0.9,-7.6 4.6,-8.8l38 -12c3.7,-1.2 7.6,0.9 8.8,4.6 1.2,3.7 -0.9,7.6 -4.6,8.8l-38 12c-0.7,0.2 -1.4,0.3 -2.1,0.3zm8 27c-3,0 -5.8,-2 -6.7,-5.1 -1.1,-3.7 1.1,-7.6 4.8,-8.7l38 -11c3.7,-1.1 7.6,1.1 8.7,4.8 1.1,3.7 -1.1,7.6 -4.8,8.7l-38 11c-0.7,0.2 -1.4,0.3 -2,0.3zm9 28c-3,0 -5.7,-1.9 -6.7,-4.9 -1.2,-3.7 0.9,-7.6 4.6,-8.8l38 -12c3.7,-1.2 7.6,0.9 8.8,4.6 1.2,3.7 -0.9,7.6 -4.6,8.8l-38 12c-0.7,0.2 -1.4,0.3 -2.1,0.3zm8 27c-3,0 -5.7,-1.9 -6.7,-4.9 -1.2,-3.7 0.9,-7.6 4.6,-8.8l38 -12c3.7,-1.2 7.6,0.9 8.8,4.6 1.2,3.7 -0.9,7.6 -4.6,8.8l-38 12c-0.7,0.2 -1.4,0.3 -2.1,0.3zm57.8 159.7l9.8 30.7 26.6 -8 -9.8 -30.7 -26.6 8z"/>
 </g>
</svg>
