<?xml version="1.0" encoding="UTF-8"?>
<!DOCTYPE svg PUBLIC "-//W3C//DTD SVG 1.1//EN" "http://www.w3.org/Graphics/SVG/1.1/DTD/svg11.dtd">
<!-- Creator: CorelDRAW -->
<svg xmlns="http://www.w3.org/2000/svg" xml:space="preserve" width="512px" height="512px" version="1.1" style="shape-rendering:geometricPrecision; text-rendering:geometricPrecision; image-rendering:optimizeQuality; fill-rule:evenodd; clip-rule:evenodd"
viewBox="0 0 512 512"
 xmlns:xlink="http://www.w3.org/1999/xlink"
 xmlns:xodm="http://www.corel.com/coreldraw/odm/2003">
 <defs>
  <style type="text/css">
   <![CDATA[
    .fil0 {fill:url(#id0)}
   ]]>
  </style>
  <linearGradient id="id0" gradientUnits="userSpaceOnUse" x1="256" y1="50.66" x2="256" y2="461.34">
   <stop offset="0" style="stop-opacity:1; stop-color:#5CC6D0"/>
   <stop offset="0.490196" style="stop-opacity:1; stop-color:#A53692"/>
   <stop offset="1" style="stop-opacity:1; stop-color:#F06277"/>
  </linearGradient>
 </defs>
 <g id="Layer_x0020_1">
  <metadata id="CorelCorpID_0Corel-Layer"/>
  <path class="fil0" d="M183.12 413.59l-50.66 0c-3.73,0 -6.64,-2.49 -7.06,-6.23l-6.64 -45.68c-2.49,-0.83 -5.4,-2.08 -7.89,-3.32l-36.96 27.82c-2.9,2.08 -7.06,2.08 -9.55,-0.83l-35.71 -35.71c-2.49,-2.49 -2.91,-6.65 -0.83,-9.55l27.41 -36.96c-1.25,-2.49 -2.08,-4.98 -3.33,-7.89l-45.67 -6.65c-3.74,-0.41 -6.23,-3.73 -6.23,-7.05l0 -50.25c0,-3.73 2.49,-6.64 6.23,-7.06l45.67 -6.64c0.84,-2.49 2.08,-5.4 3.33,-7.89l-27.41 -36.96c-2.08,-2.91 -2.08,-7.06 0.83,-9.55l35.71 -35.71c2.49,-2.49 6.65,-2.91 9.55,-0.83l36.96 27.4c2.49,-1.24 4.98,-2.07 7.48,-3.32l6.64 -45.68c0.42,-3.73 3.74,-6.22 7.06,-6.22l51.07 0c3.74,0 6.65,2.49 7.06,6.23l6.65 45.68c2.49,0.82 4.98,2.07 7.47,3.32l36.96 -27.41c2.91,-2.08 7.06,-1.66 9.55,0.83l35.71 35.71c2.49,2.49 2.91,6.65 0.83,9.55l-27.4 36.96c1.24,2.49 2.07,4.98 3.32,7.89l45.68 6.65c3.73,0.41 6.22,3.73 6.22,7.05l0 50.66c0,3.74 -2.49,6.65 -6.22,7.06l-45.68 6.65c-1.25,2.9 -2.08,5.4 -3.32,7.89l27.4 36.96c2.08,2.9 2.08,7.06 -0.83,9.55l-35.71 35.71c-2.49,2.49 -6.64,2.9 -9.55,0.83l-36.96 -28.24c-2.49,1.24 -4.98,2.08 -7.89,3.32l-6.64 45.68c0,3.74 -3.33,6.23 -6.65,6.23zm245.42 -166.1l-30.73 0c-3.74,0 -6.65,-2.49 -7.06,-6.23l-3.74 -25.75c-0.42,-0.41 -1.24,-0.41 -1.66,-0.83l-21.18 15.78c-2.91,2.08 -7.06,1.66 -9.55,-0.83l-21.59 -21.59c-2.49,-2.49 -2.91,-6.65 -0.83,-9.55l15.78 -21.18c-0.42,-0.42 -0.42,-1.25 -0.83,-1.66l-26.16 -3.74c-3.74,-0.41 -6.23,-3.73 -6.23,-7.06l0 -30.73c0,-3.73 2.49,-6.64 6.23,-7.05l26.16 -3.74c0.41,-0.42 0.41,-1.25 0.83,-1.66l-15.78 -21.18c-2.08,-2.91 -1.66,-7.06 0.83,-9.55l21.59 -22.01c2.49,-2.49 6.64,-2.91 9.55,-0.83l21.18 15.78c0.42,-0.42 1.24,-0.42 1.66,-0.83l3.74 -26.16c0.41,-3.74 3.73,-6.23 7.06,-6.23l30.73 0c3.73,0 6.64,2.49 7.05,6.23l3.74 26.16c0.42,0 0.83,0.42 1.66,0.42l21.18 -15.78c2.91,-2.08 7.06,-1.66 9.55,0.83l22.01 22c2.49,2.49 2.91,6.65 0.83,9.56l-15.78 20.76c0.42,0.41 0.42,1.24 0.83,1.66l26.16 3.74c3.74,0.41 6.23,3.73 6.23,7.05l0 30.32c0,3.74 -2.49,6.64 -6.23,7.06l-26.99 4.98c-0.41,0.83 -0.41,1.25 -0.83,2.08l15.78 20.76c2.08,2.91 2.08,7.06 -0.83,9.55 -30.86,28.58 -18.21,32.06 -52.32,6.64 -0.42,0.42 -0.83,0.42 -1.66,0.83l-3.74 26.16c0,3.33 -3.32,5.82 -6.64,5.82zm-24.5 -14.54l18.27 0c5.48,-35.35 1.58,-24.91 16.61,-33.63 2.49,-1.25 5.39,-0.83 7.47,0.83l19.52 14.53 12.87 -12.87c-21.17,-28.43 -17.07,-18.61 -12.04,-34.88 0.83,-2.91 2.91,-4.99 5.81,-5.4l24.09 -3.74 0 -17.85c-32.53,-5.05 -25.61,-0.98 -33.22,-16.2 -1.25,-2.49 -1.25,-5.81 0.41,-7.89l14.54 -19.51 -12.88 -12.46c-28.42,21.17 -18.61,17.07 -34.88,12.04 -2.91,-0.83 -4.57,-2.91 -4.98,-5.81l-3.74 -24.09 -18.27 0c-4.73,34.32 -0.86,25.92 -16.61,33.22 -2.49,1.25 -5.4,0.83 -7.47,-0.83l-19.52 -14.53 -12.46 12.87c19.68,26.43 18.12,19.04 11.21,35.71 -0.83,2.5 -3.32,4.16 -5.81,4.57l-24.08 3.74 0 17.85c34.23,5.32 25.13,1.12 33.63,16.61 1.25,2.49 0.83,5.4 -0.83,7.48l-14.53 19.52 12.46 12.45c26.28,-19.57 19.34,-18.23 35.29,-11.62 2.49,0.83 4.15,3.32 4.57,5.81l4.57 24.08zm9.13 -41.94c-22.84,0 -41.52,-18.68 -41.52,-41.52 0,-22.84 18.68,-41.53 41.52,-41.53 22.84,0 41.53,18.69 41.53,41.53 0,22.84 -18.69,41.52 -41.53,41.52zm0 -68.51c-14.95,0 -26.99,12.04 -26.99,26.99 0,15.36 12.04,26.99 26.99,26.99 14.95,0 26.99,-12.04 26.99,-26.99 0,-14.95 -12.04,-26.99 -26.99,-26.99zm15.37 338.84l-30.73 0c-3.74,0 -6.65,-2.49 -7.06,-6.23l-3.74 -25.74c-0.42,-0.42 -1.24,-0.42 -1.66,-0.83l-21.18 15.77c-2.91,2.08 -7.06,2.08 -9.55,-0.83 -28.89,-31.49 -31.8,-18.97 -6.64,-52.73 -0.42,-0.42 -0.42,-1.25 -0.83,-1.66l-25.75 -3.74c-3.74,-0.42 -6.23,-3.74 -6.23,-7.06l0 -30.73c0,-3.73 2.49,-6.64 6.23,-7.06l25.75 -3.73c0.41,-0.42 0.41,-1.25 0.83,-1.66l-15.78 -21.18c-2.08,-2.91 -1.66,-7.06 0.83,-9.55l21.59 -22.01c2.49,-2.49 6.64,-2.91 9.55,-0.83l20.76 15.78c0.42,-0.42 1.25,-0.42 1.66,-0.83l3.74 -26.16c0.42,-3.74 3.74,-6.23 7.06,-6.23l30.73 0c3.74,0 6.65,2.49 7.06,6.23l3.74 26.16c0.41,0.41 1.24,0.41 1.66,0.83l20.76 -15.78c2.91,-2.08 7.06,-2.08 9.55,0.83 28.97,31.28 32.61,18.69 7.06,52.32 0.42,0.41 0.42,1.24 0.83,1.66l26.16 3.74c3.74,0.41 6.23,3.73 6.23,7.06l0 31.97c0,3.74 -2.49,6.65 -6.23,7.06l-26.16 3.74c-0.41,0.83 -0.41,1.24 -0.83,1.66l15.78 20.76c2.08,2.91 2.08,7.06 -0.83,9.55 -31.36,29.04 -18.55,32.54 -52.74,7.06 -0.41,0.42 -0.83,0.42 -1.66,0.83l-3.73 26.16c0.41,2.91 -2.91,5.4 -6.23,5.4zm-24.5 -14.53l18.27 0c5.48,-35.35 1.58,-24.92 16.61,-33.64 2.49,-1.24 5.39,-0.83 7.47,0.83l19.52 14.54 12.87 -12.88c-21.17,-28.42 -17.07,-18.61 -12.04,-34.88 0.83,-2.91 3.32,-4.98 6.23,-5.4l24.08 -3.32 0 -18.27c-32.41,-4.47 -26.16,-0.49 -33.63,-16.61 -1.25,-2.49 -0.83,-5.4 0.83,-7.47l14.53 -19.52 -12.87 -12.87 -19.52 15.36c-4.98,3.95 -10.69,-1.44 -15.36,-2.49 -2.91,-0.83 -4.57,-2.91 -4.99,-5.82l-3.73 -24.08 -18.27 0c-4.48,32.41 -0.5,26.16 -16.61,33.64 -2.5,1.24 -5.4,0.83 -7.48,-0.83l-19.52 -14.54 -12.87 12.88c19.57,26.28 18.23,19.34 11.63,35.29 -0.83,2.49 -3.32,4.15 -5.81,4.57l-24.09 3.32 0 18.27c34.18,4.72 25.13,0.7 33.63,16.2 1.25,2.49 0.83,5.4 -0.82,7.47l-14.54 19.52 12.87 12.87c26.29,-19.57 19.35,-18.23 35.3,-11.63 2.49,0.84 4.15,3.33 4.57,5.82l3.74 23.67zm9.13 -41.94c-22.84,0 -41.52,-18.69 -41.52,-41.53 0,-22.84 18.68,-41.52 41.52,-41.52 22.84,0 41.53,18.68 41.53,41.52 0,22.84 -18.69,41.53 -41.53,41.53zm0 -68.1c-14.95,0 -26.99,12.04 -26.99,26.99 0,15.36 12.04,26.99 26.99,26.99 14.95,0 26.99,-12.04 26.99,-26.99 0,-14.95 -12.04,-26.99 -26.99,-26.99zm-255.38 -29.49c-27.82,0 -50.66,-22.84 -50.66,-51.07 0,-27.82 22.84,-50.66 50.66,-50.66 27.83,0 50.25,22.84 50.25,50.66 0,28.23 -22.42,51.07 -50.25,51.07zm0 -86.78c-19.93,0 -36.12,16.19 -36.12,36.12 0,19.94 16.19,36.54 36.12,36.54 19.94,0 36.13,-16.19 36.13,-36.54 -0.41,-19.93 -16.61,-36.12 -36.13,-36.12zm7.89 154.88l-16.19 0c-3.74,0 -6.65,-2.49 -7.06,-6.23l-4.57 -31.55c-8.3,-2.08 -16.19,-5.4 -23.67,-9.97 -36.39,27.44 -26.1,25.28 -46.51,6.64 -2.49,-2.07 -2.9,-6.22 -0.83,-9.13l19.1 -25.33c-4.15,-7.06 -7.47,-14.95 -9.55,-23.67l-31.56 -4.57c-3.73,-0.41 -6.22,-3.74 -6.22,-7.06l0 -16.61c0,-3.73 2.49,-6.64 6.22,-7.06l31.56 -4.56c2.08,-8.31 5.4,-16.2 9.55,-23.26 -26.09,-34.6 -26.04,-27.05 -6.64,-46.09 2.49,-2.49 6.64,-2.91 9.55,-0.83l25.75 18.69c7.47,-4.57 15.36,-7.89 23.25,-9.97l4.57 -31.56c0.41,-3.74 3.74,-6.23 7.06,-6.23l16.19 0c3.74,0 6.65,2.49 7.06,6.23l4.57 31.56c8.3,2.08 16.19,5.4 23.25,9.55l25.75 -18.69c2.91,-2.07 6.64,-1.66 9.55,0.83l11.63 11.22c2.49,2.49 2.9,6.64 0.83,9.55l-19.1 25.74c4.56,7.06 7.47,14.95 9.55,23.26l31.56 4.56c3.73,0.42 6.22,3.74 6.22,7.06l0 16.61c0,3.74 -2.49,6.65 -6.22,7.06l-31.56 4.57c-2.08,8.72 -5.4,16.61 -9.55,23.67l19.1 25.33c2.07,2.91 2.07,7.06 -0.83,9.55 -20.27,18.77 -10.78,20.3 -46.51,-6.64 -7.06,4.56 -15.37,7.89 -23.67,9.96l-4.57 31.56c-0.41,3.32 -3.32,5.81 -7.06,5.81zm-9.96 -14.53l3.74 0 4.56 -30.31c1.34,-9.67 16.67,-4.47 33.22,-17.44 2.49,-2.08 6.23,-1.66 8.72,0l24.5 18.27 2.91 -2.91 -18.27 -24.08c-5.99,-7.53 7.7,-13.34 11.21,-36.55 0.41,-2.9 2.91,-5.39 6.23,-5.81l30.31 -4.15 0 -3.32 -30.31 -4.57c-9.05,-1.33 -5.34,-15.3 -17.44,-33.22 -1.66,-2.49 -1.66,-5.81 0,-8.72l17.85 -24.09 -2.49 -2.49 -24.5 18.27c-7.86,5.55 -13.41,-7.76 -35.71,-11.21 -2.9,-0.41 -5.39,-2.9 -5.81,-6.23l-4.57 -30.31 -3.74 0c-8.41,55.79 -0.1,23.03 -37.78,48.17 -2.5,1.66 -5.82,1.66 -8.31,0l-24.5 -18.27 -3.32 2.07 18.27 24.5c6.04,7.66 -7.53,12.37 -11.21,36.13 -0.42,2.91 -2.91,5.4 -6.23,5.81l-29.9 4.16 0 3.73 30.31 4.16c9.03,1.26 5.19,15.02 17.44,33.63 1.66,2.49 1.66,6.23 0,8.72l-18.27 24.09 2.91 2.9 24.5 -18.27c7.71,-6.08 14.62,8.45 35.71,11.21 3.32,0.42 5.4,2.91 6.23,6.23l3.74 29.9zm-17.03 38.2l37.79 0 6.64 -44.01c0.93,-6.3 7.38,-5.65 18.28,-11.63 2.49,-1.25 5.81,-1.25 7.89,0.42l35.71 26.57 26.57 -26.99 -26.16 -34.88c-4.02,-5.19 1.4,-10.81 4.98,-22.01 0.83,-2.49 3.33,-4.57 5.82,-4.98l44.01 -6.23 0 -37.79 -44.01 -6.23c-6.42,-0.91 -7.09,-10.01 -11.63,-19.1 -1.24,-2.49 -0.83,-5.4 0.83,-7.47l26.58 -35.3 -26.99 -26.99 -35.72 26.58c-5.25,4.05 -11.36,-1.58 -21.59,-4.99 -2.49,-0.83 -4.57,-3.32 -4.98,-5.81l-6.23 -43.6 -37.79 0 -6.64 43.6c-1.07,6.72 -9.33,6.95 -18.69,11.63 -2.49,1.24 -5.4,0.83 -7.47,-0.83l-35.71 -26.58 -26.58 26.99 26.58 35.3c4.11,5.29 -1.99,12.58 -4.99,21.59 -0.83,2.49 -3.32,4.57 -5.81,4.98l-43.6 6.23 0 37.79 43.6 6.23c6.4,0.91 6.82,9.43 11.63,19.52 1.24,2.49 0.83,5.39 -0.83,7.47l-26.58 35.3 26.58 26.99c50.94,-37.92 32.3,-28.68 56.89,-21.18 2.9,0.83 4.56,2.91 4.98,5.81l6.64 43.6z"/>
 </g>
</svg>
